<svg width="50" height="50" viewBox="0 0 50 50" fill="none" xmlns="http://www.w3.org/2000/svg">
<path d="M28.5583 19.6699H28.0583V20.1699H28.5583V19.6699ZM35.3376 19.6699V20.1699H35.8376V19.6699H35.3376ZM28.5583 17.7276V17.2276H28.0583V17.7276H28.5583ZM35.3376 17.7276H35.8376V17.2276H35.3376V17.7276ZM34.74 21.3003L34.5378 21.7576L34.5388 21.758L34.74 21.3003ZM27.8057 22.3591L27.454 22.0036L27.453 22.0046L27.8057 22.3591ZM27.9818 31.5804L28.2936 31.1896L28.2923 31.1885L27.9818 31.5804ZM36.5026 31.3176L36.14 30.9732L36.1373 30.9762L36.5026 31.3176ZM37.636 29.2313L38.1324 29.2914L38.2003 28.7313H37.636V29.2313ZM34.5128 29.2313V28.7313H34.2128L34.0716 28.9959L34.5128 29.2313ZM33.8821 30.0257L33.5696 29.6353L33.5676 29.637L33.8821 30.0257ZM30.4985 30.1193L30.7621 29.6944L30.7567 29.6911L30.4985 30.1193ZM29.2732 27.6855V27.1855H28.7506L28.7737 27.7076L29.2732 27.6855ZM37.7971 27.6855V28.1855H38.2903L38.297 27.6923L37.7971 27.6855ZM37.6947 25.3942L37.2007 25.4715L37.2007 25.4716L37.6947 25.3942ZM36.76 23.008L36.3467 23.2894L36.3512 23.2959L36.76 23.008ZM23.9449 18.6631L24.3492 18.3688L24.3459 18.3644L23.9449 18.6631ZM19.8448 17L19.8521 16.5H19.8448V17ZM23.9389 23.3436L24.3206 23.6666L24.3209 23.6662L23.9389 23.3436ZM22.7317 24.2316L22.507 23.7849L21.4684 24.3074L22.5621 24.7019L22.7317 24.2316ZM24.5605 25.6096L24.9791 25.3361L24.978 25.3344L24.5605 25.6096ZM24.4702 30.3851L24.0494 30.1148L24.0441 30.1235L24.4702 30.3851ZM23.3504 31.6131L23.0525 31.2114L23.0486 31.2144L23.3504 31.6131ZM21.5637 32.3971L21.6642 32.8869L21.6652 32.8867L21.5637 32.3971ZM12.2 32.6065H11.7V33.1065H12.2V32.6065ZM12.2 17V16.5H11.7V17H12.2ZM1.5 25C1.5 12.0213 12.0213 1.5 25 1.5V0.5C11.469 0.5 0.5 11.469 0.5 25H1.5ZM25 48.5C12.0213 48.5 1.5 37.9787 1.5 25H0.5C0.5 38.531 11.469 49.5 25 49.5V48.5ZM48.5 25C48.5 37.9787 37.9787 48.5 25 48.5V49.5C38.531 49.5 49.5 38.531 49.5 25H48.5ZM25 1.5C37.9787 1.5 48.5 12.0213 48.5 25H49.5C49.5 11.469 38.531 0.5 25 0.5V1.5ZM28.5583 20.1699H35.3376V19.1699H28.5583V20.1699ZM28.0583 17.7276V19.6699H29.0583V17.7276H28.0583ZM35.3376 17.2276H28.5583V18.2276H35.3376V17.2276ZM35.8376 19.6699V17.7276H34.8376V19.6699H35.8376ZM31.9886 21.2583C32.9475 21.2583 33.7939 21.4286 34.5378 21.7576L34.9423 20.8431C34.0546 20.4504 33.0677 20.2583 31.9886 20.2583V21.2583ZM28.1573 22.7145C29.128 21.7543 30.388 21.2583 31.9886 21.2583V20.2583C30.1603 20.2583 28.6358 20.8345 27.454 22.0036L28.1573 22.7145ZM26.6951 26.9608C26.6951 25.0495 27.2067 23.6602 28.1583 22.7135L27.453 22.0046C26.2583 23.1932 25.6951 24.8718 25.6951 26.9608H26.6951ZM28.2923 31.1885C27.2618 30.3719 26.6951 29.006 26.6951 26.9608H25.6951C25.6951 29.1803 26.3146 30.8972 27.6712 31.9723L28.2923 31.1885ZM32.1015 32.5C30.6533 32.5 29.3898 32.0641 28.2936 31.1896L27.67 31.9713C28.9489 32.9915 30.4339 33.5 32.1015 33.5V32.5ZM36.1373 30.9762C35.2052 31.9737 33.8829 32.5 32.1015 32.5V33.5C34.092 33.5 35.7048 32.9037 36.8679 31.659L36.1373 30.9762ZM37.1396 29.1711C37.0742 29.7108 36.7678 30.3123 36.1401 30.9733L36.8652 31.6619C37.5801 30.9092 38.0322 30.1179 38.1324 29.2914L37.1396 29.1711ZM34.5128 29.7313H37.636V28.7313H34.5128V29.7313ZM34.1945 30.4161C34.4976 30.1735 34.7486 29.8515 34.9539 29.4666L34.0716 28.9959C33.9157 29.2882 33.7452 29.4948 33.5696 29.6353L34.1945 30.4161ZM32.1858 31.0543C32.9658 31.0543 33.6528 30.8544 34.1966 30.4144L33.5676 29.637C33.2414 29.9009 32.7935 30.0543 32.1858 30.0543V31.0543ZM30.2348 30.5441C30.7947 30.8915 31.4514 31.0543 32.1858 31.0543V30.0543C31.6015 30.0543 31.1354 29.9261 30.7621 29.6944L30.2348 30.5441ZM28.7737 27.7076C28.8298 28.9743 29.2833 29.9703 30.2402 30.5474L30.7567 29.6911C30.1723 29.3387 29.8191 28.7102 29.7727 27.6634L28.7737 27.7076ZM37.7971 27.1855H29.2732V28.1855H37.7971V27.1855ZM37.2007 25.4716C37.2768 25.9576 37.3106 26.6899 37.2971 27.6787L38.297 27.6923C38.3107 26.6883 38.2782 25.8882 38.1887 25.3169L37.2007 25.4716ZM36.3512 23.2959C36.7857 23.9129 37.0698 24.635 37.2007 25.4715L38.1887 25.317C38.0366 24.3448 37.7006 23.4751 37.1688 22.7201L36.3512 23.2959ZM34.5388 21.758C35.265 22.0773 35.8663 22.5838 36.3467 23.2894L37.1733 22.7266C36.5941 21.8759 35.8497 21.242 34.9413 20.8426L34.5388 21.758ZM24.3459 18.3644C23.4125 17.1115 21.8666 16.5295 19.8521 16.5001L19.8375 17.4999C21.6822 17.5269 22.8667 18.0527 23.5439 18.9618L24.3459 18.3644ZM25.1704 21.0449C25.1704 20.0276 24.902 19.1284 24.3491 18.3689L23.5407 18.9574C23.9541 19.5253 24.1704 20.2121 24.1704 21.0449H25.1704ZM24.3209 23.6662C24.9049 22.9748 25.1704 22.0824 25.1704 21.0449H24.1704C24.1704 21.9111 23.9513 22.5541 23.5569 23.0209L24.3209 23.6662ZM22.9564 24.6782C23.5265 24.3914 23.99 24.0572 24.3206 23.6666L23.5572 23.0206C23.3399 23.2774 22.9996 23.5371 22.507 23.7849L22.9564 24.6782ZM24.978 25.3344C24.4968 24.6041 23.7952 24.0837 22.9014 23.7612L22.5621 24.7019C23.2818 24.9615 23.7964 25.3587 24.143 25.8847L24.978 25.3344ZM25.6761 27.8963C25.6761 26.9213 25.4512 26.0586 24.9791 25.3361L24.1419 25.883C24.4887 26.4138 24.6761 27.0776 24.6761 27.8963H25.6761ZM24.8909 30.6553C25.4172 29.8358 25.6761 28.9107 25.6761 27.8963H24.6761C24.6761 28.7322 24.4654 29.4672 24.0495 30.1149L24.8909 30.6553ZM23.6482 32.0147C24.1494 31.6431 24.5658 31.1852 24.8963 30.6466L24.0441 30.1235C23.7786 30.556 23.4485 30.9179 23.0525 31.2115L23.6482 32.0147ZM21.6652 32.8867C22.4168 32.731 23.0818 32.4434 23.6521 32.0118L23.0486 31.2144C22.6104 31.546 22.0863 31.7782 21.4622 31.9075L21.6652 32.8867ZM19.3285 33.1065C20.1603 33.1065 20.9381 33.0358 21.6642 32.8869L21.4633 31.9073C20.8136 32.0405 20.1043 32.1065 19.3285 32.1065V33.1065ZM12.2 33.1065H19.3285V32.1065H12.2V33.1065ZM11.7 17V32.6065H12.7V17H11.7ZM19.8448 16.5H12.2V17.5H19.8448V16.5Z" fill="#353535"/>
<path d="M15.3533 19.71V19.21H14.8533V19.71H15.3533ZM20.6681 19.9535L20.8596 19.4916L20.8424 19.4845L20.8247 19.4787L20.6681 19.9535ZM20.8743 22.7659L21.1316 23.1946L21.133 23.1938L20.8743 22.7659ZM15.3533 23.1535H14.8533V23.6535H15.3533V23.1535ZM33.8068 23.8692L34.1331 23.4903L34.1294 23.4872L33.8068 23.8692ZM34.6211 25.6942V26.1942H35.157L35.1199 25.6595L34.6211 25.6942ZM29.3485 25.6942L28.8539 25.6209L28.7689 26.1942H29.3485V25.6942ZM15.3533 25.7358V25.2358H14.8533V25.7358H15.3533ZM19.2487 25.7358L19.2531 25.2358H19.2487V25.7358ZM15.3533 29.898H14.8533V30.398H15.3533V29.898ZM20.7976 29.6233L21.0138 30.0741L21.0184 30.0719L20.7976 29.6233ZM20.8307 26.0001L21.0368 25.5445L21.0358 25.5441L20.8307 26.0001ZM18.7972 19.21H15.3533V20.21H18.7972V19.21ZM20.8247 19.4787C20.2663 19.2944 19.5856 19.21 18.7972 19.21V20.21C19.5229 20.21 20.0886 20.2888 20.5115 20.4283L20.8247 19.4787ZM22.017 21.3968C22.017 20.9697 21.9343 20.5734 21.7357 20.2361C21.5336 19.8927 21.2322 19.6461 20.8596 19.4916L20.4766 20.4154C20.67 20.4955 20.7931 20.6061 20.8739 20.7434C20.9583 20.8868 21.017 21.0949 21.017 21.3968H22.017ZM21.133 23.1938C21.7557 22.8174 22.017 22.1646 22.017 21.3968H21.017C21.017 21.9358 20.8479 22.1977 20.6157 22.338L21.133 23.1938ZM19.2006 23.6535C19.9442 23.6535 20.6 23.5137 21.1316 23.1946L20.617 22.3372C20.2877 22.5349 19.8267 22.6535 19.2006 22.6535V23.6535ZM15.3533 23.6535H19.2006V22.6535H15.3533V23.6535ZM14.8533 19.71V23.1535H15.8533V19.71H14.8533ZM31.9901 22.7485C31.1122 22.7485 30.3579 22.9976 29.8077 23.5573L30.5209 24.2583C30.8347 23.939 31.3025 23.7485 31.9901 23.7485V22.7485ZM34.1294 23.4872C33.5373 22.9872 32.8151 22.7485 31.9901 22.7485V23.7485C32.61 23.7485 33.095 23.9226 33.4843 24.2513L34.1294 23.4872ZM35.1199 25.6595C35.0573 24.7576 34.7416 24.0142 34.133 23.4903L33.4806 24.2481C33.8414 24.5588 34.0736 25.027 34.1223 25.7288L35.1199 25.6595ZM29.3485 26.1942H34.6211V25.1942H29.3485V26.1942ZM29.8077 23.5573C29.286 24.0882 28.9772 24.7892 28.8539 25.6209L29.8431 25.7675C29.9425 25.0965 30.1786 24.6065 30.5209 24.2583L29.8077 23.5573ZM15.3533 26.2358H19.2487V25.2358H15.3533V26.2358ZM15.8533 29.898V25.7358H14.8533V29.898H15.8533ZM19.1945 29.398H15.3533V30.398H19.1945V29.398ZM20.5813 29.1725C20.2972 29.3087 19.8472 29.398 19.1945 29.398V30.398C19.9147 30.398 20.5363 30.3031 21.0138 30.0741L20.5813 29.1725ZM21.3376 27.6751C21.3376 28.0967 21.2614 28.412 21.1368 28.6453C21.0155 28.8723 20.8351 29.0475 20.5768 29.1747L21.0184 30.0719C21.4539 29.8575 21.7935 29.5382 22.0188 29.1164C22.2408 28.7007 22.3376 28.2127 22.3376 27.6751H21.3376ZM20.6246 26.4556C20.8814 26.5718 21.0494 26.7236 21.1579 26.9041C21.2683 27.0879 21.3376 27.3362 21.3376 27.6751H22.3376C22.3376 27.2002 22.2399 26.7632 22.015 26.389C21.7882 26.0116 21.4528 25.7328 21.0368 25.5445L20.6246 26.4556ZM19.2443 26.2357C19.8904 26.2414 20.3397 26.3275 20.6255 26.4561L21.0358 25.5441C20.5691 25.3341 19.9617 25.242 19.2531 25.2358L19.2443 26.2357Z" fill="#353535"/>
</svg>
