<svg width="50" height="50" viewBox="0 0 50 50" fill="none" xmlns="http://www.w3.org/2000/svg">
<path d="M37.5388 22.4089L37.049 22.5094L37.049 22.5097L37.5388 22.4089ZM37.5388 27.555L37.049 27.4543L37.049 27.4545L37.5388 27.555ZM36.7925 29.9572L36.3322 29.7619L36.3318 29.7628L36.7925 29.9572ZM35.6118 32.1279L35.1984 31.8466L35.1973 31.8483L35.6118 32.1279ZM34.0505 34.0197L34.4032 34.3741L34.4043 34.3729L34.0505 34.0197ZM32.1566 35.58L32.436 35.9947L32.4372 35.9939L32.1566 35.58ZM29.9822 36.7584L30.1763 37.2192L30.1772 37.2188L29.9822 36.7584ZM27.5776 37.5023L27.4772 37.0125L27.4769 37.0126L27.5776 37.5023ZM22.4218 37.5023L22.5227 37.0126L22.5221 37.0125L22.4218 37.5023ZM20.0167 36.7584L19.8216 37.2188L19.8224 37.2191L20.0167 36.7584ZM17.8416 35.58L17.5611 35.9939L17.5622 35.9947L17.8416 35.58ZM15.949 34.0197L15.5953 34.3731L15.5959 34.3737L15.949 34.0197ZM14.3864 32.1279L14.8007 31.848L14.8005 31.8477L14.3864 32.1279ZM13.2063 29.9572L13.6667 29.7622L13.6666 29.7619L13.2063 29.9572ZM12.4588 27.555L11.9688 27.6545L11.969 27.6558L12.4588 27.555ZM12.4588 22.4089L11.9691 22.3081L11.9689 22.3091L12.4588 22.4089ZM13.2064 20.0066L13.6665 20.2022L13.6668 20.2016L13.2064 20.0066ZM14.3864 17.8347L14.8005 18.1149L14.8009 18.1144L14.3864 17.8347ZM15.949 15.9429L15.5959 15.5889L15.5951 15.5897L15.949 15.9429ZM17.8416 14.3845L17.5615 13.9703L17.5614 13.9704L17.8416 14.3845ZM20.0167 13.2036L19.8221 12.7431L19.8214 12.7434L20.0167 13.2036ZM22.4219 12.4596L22.5214 12.9496L22.522 12.9495L22.4219 12.4596ZM27.5777 12.4596L27.4777 12.9495L27.478 12.9496L27.5777 12.4596ZM29.9822 13.2036L30.1776 12.7434L30.1767 12.743L29.9822 13.2036ZM32.1567 14.3845L32.4369 13.9704L32.4368 13.9703L32.1567 14.3845ZM34.0505 15.9429L34.4046 15.5899L34.4033 15.5885L34.0505 15.9429ZM35.6119 17.8347L35.1973 18.1141L35.1985 18.1159L35.6119 17.8347ZM36.7925 20.0066L36.3318 20.2009L36.3323 20.2022L36.7925 20.0066ZM1.5 25C1.5 12.0213 12.0213 1.5 25 1.5V0.5C11.469 0.5 0.5 11.469 0.5 25H1.5ZM25 48.5C12.0213 48.5 1.5 37.9787 1.5 25H0.5C0.5 38.531 11.469 49.5 25 49.5V48.5ZM48.5 25C48.5 37.9787 37.9787 48.5 25 48.5V49.5C38.531 49.5 49.5 38.531 49.5 25H48.5ZM25 1.5C37.9787 1.5 48.5 12.0213 48.5 25H49.5C49.5 11.469 38.531 0.5 25 0.5V1.5ZM38.3 24.9823C38.3 24.0823 38.2085 23.1822 38.0285 22.3081L37.049 22.5097C37.2153 23.3171 37.3 24.1496 37.3 24.9823H38.3ZM38.0285 27.6556C38.2084 26.7798 38.3 25.8817 38.3 24.9823H37.3C37.3 25.8141 37.2153 26.6448 37.049 27.4543L38.0285 27.6556ZM37.2528 30.1525C37.5935 29.3494 37.8532 28.51 38.0286 27.6555L37.049 27.4545C36.8867 28.2451 36.6465 29.021 36.3322 29.7619L37.2528 30.1525ZM36.0252 32.4092C36.5077 31.7001 36.9204 30.9402 37.2532 30.1516L36.3318 29.7628C36.0246 30.491 35.6435 31.1927 35.1984 31.8466L36.0252 32.4092ZM34.4043 34.3729C35.0043 33.7719 35.5511 33.112 36.0263 32.4076L35.1973 31.8483C34.7588 32.4983 34.253 33.1091 33.6966 33.6665L34.4043 34.3729ZM32.4372 35.9939C33.1398 35.5177 33.8015 34.973 34.4032 34.3741L33.6978 33.6653C33.1406 34.2198 32.5273 34.7248 31.8761 35.1661L32.4372 35.9939ZM30.1772 37.2188C30.9654 36.8849 31.7255 36.4733 32.436 35.9947L31.8773 35.1653C31.2202 35.6079 30.5166 35.989 29.7871 36.298L30.1772 37.2188ZM27.6781 37.9921C28.5316 37.8171 29.3725 37.5578 30.1763 37.2192L29.788 36.2976C29.0455 36.6105 28.2675 36.8505 27.4772 37.0125L27.6781 37.9921ZM24.9994 38.2645C25.9002 38.2645 26.8015 38.1724 27.6784 37.9921L27.4769 37.0126C26.6663 37.1793 25.8325 37.2645 24.9994 37.2645V38.2645ZM22.3209 37.992C23.1967 38.1724 24.0981 38.2645 24.9994 38.2645V37.2645C24.1657 37.2645 23.332 37.1793 22.5227 37.0126L22.3209 37.992ZM19.8224 37.2191C20.6257 37.5579 21.4666 37.8172 22.3215 37.9922L22.5221 37.0125C21.7307 36.8505 20.9528 36.6105 20.211 36.2977L19.8224 37.2191ZM17.5622 35.9947C18.2728 36.4733 19.0336 36.8849 19.8216 37.2188L20.2117 36.298C19.4822 35.9889 18.7779 35.6078 18.1209 35.1653L17.5622 35.9947ZM15.5959 34.3737C16.1966 34.9729 16.8584 35.5177 17.5611 35.9939L18.1221 35.1661C17.4709 34.7248 16.8577 34.2199 16.3021 33.6657L15.5959 34.3737ZM13.9721 32.4078C14.4478 33.1121 14.9946 33.772 15.5953 34.3731L16.3027 33.6663C15.7458 33.1091 15.24 32.4982 14.8007 31.848L13.9721 32.4078ZM12.7459 30.1522C13.0799 30.9405 13.4929 31.6999 13.9723 32.4082L14.8005 31.8477C14.3573 31.1929 13.9753 30.4906 13.6667 29.7622L12.7459 30.1522ZM11.969 27.6558C12.145 28.5103 12.4054 29.3496 12.746 30.1525L13.6666 29.7619C13.3521 29.0207 13.1113 28.2448 12.9485 27.4541L11.969 27.6558ZM11.7 24.9823C11.7 25.8814 11.7909 26.7792 11.9688 27.6545L12.9488 27.4554C12.7841 26.6454 12.7 25.8143 12.7 24.9823H11.7ZM11.9689 22.3091C11.7908 23.1828 11.7 24.0826 11.7 24.9823H12.7C12.7 24.1494 12.7841 23.3165 12.9487 22.5087L11.9689 22.3091ZM12.7462 19.8111C12.4054 20.6131 12.145 21.4537 11.9691 22.3081L12.9485 22.5097C13.1114 21.7189 13.3522 20.9418 13.6665 20.2022L12.7462 19.8111ZM13.9724 17.5544C13.4929 18.2629 13.0798 19.0229 12.7459 19.8117L13.6668 20.2016C13.9754 19.4725 14.3574 18.7696 14.8005 18.1149L13.9724 17.5544ZM15.5951 15.5897C14.9948 16.1911 14.448 16.8498 13.972 17.5549L14.8009 18.1144C15.2399 17.464 15.7457 16.8543 16.3029 16.2961L15.5951 15.5897ZM17.5614 13.9704C16.8589 14.4458 16.1969 14.9894 15.5959 15.5889L16.3021 16.2969C16.8575 15.7429 17.4705 15.2394 18.1219 14.7986L17.5614 13.9704ZM19.8214 12.7434C19.0336 13.0778 18.2726 13.4894 17.5615 13.9703L18.1218 14.7986C18.7782 14.3546 19.4823 13.9736 20.2121 13.6639L19.8214 12.7434ZM22.3223 11.9697C21.4666 12.1435 20.6254 12.4036 19.8221 12.7431L20.2114 13.6642C20.9532 13.3507 21.7307 13.1103 22.5214 12.9496L22.3223 11.9697ZM24.9995 11.7C24.0986 11.7 23.1975 11.7907 22.3217 11.9698L22.522 12.9495C23.3313 12.7841 24.1653 12.7 24.9995 12.7V11.7ZM27.6777 11.9697C26.8008 11.7907 25.8997 11.7 24.9995 11.7V12.7C25.833 12.7 26.667 12.7841 27.4777 12.9495L27.6777 11.9697ZM30.1767 12.743C29.3729 12.4036 28.5317 12.1436 27.6774 11.9697L27.478 12.9496C28.2675 13.1103 29.0452 13.3507 29.7877 13.6642L30.1767 12.743ZM32.4368 13.9703C31.7259 13.4894 30.9655 13.0778 30.1776 12.7434L29.7869 13.6639C30.5165 13.9735 31.22 14.3545 31.8765 14.7986L32.4368 13.9703ZM34.4033 15.5885C33.8013 14.9893 33.1394 14.4458 32.4369 13.9704L31.8764 14.7986C32.5278 15.2394 33.141 15.743 33.6978 16.2973L34.4033 15.5885ZM36.0265 17.5552C35.551 16.8498 35.0042 16.1912 34.4046 15.5899L33.6965 16.296C34.2532 16.8543 34.759 17.4639 35.1973 18.1141L36.0265 17.5552ZM37.2532 19.8124C36.9205 19.0233 36.5078 18.2627 36.0253 17.5534L35.1985 18.1159C35.6434 18.7699 36.0245 19.4722 36.3318 20.2009L37.2532 19.8124ZM38.0286 22.3084C37.8533 21.454 37.5935 20.6133 37.2527 19.8111L36.3323 20.2022C36.6465 20.9416 36.8867 21.7186 37.049 22.5094L38.0286 22.3084Z" fill="#353535"/>
<path d="M32.2185 16.7898L32.6341 17.0679L32.8776 16.7039L32.549 16.4146L32.2185 16.7898ZM32.2176 16.7913L31.802 16.5132L31.8019 16.5133L32.2176 16.7913ZM22.4236 14.3732L22.3068 13.8871L21.5689 14.0644L22.0231 14.6724L22.4236 14.3732ZM22.4414 14.397L22.0408 14.6962L22.041 14.6964L22.4414 14.397ZM26.5101 20.7405L26.0711 20.98L26.2789 21.361L26.6854 21.2088L26.5101 20.7405ZM27.3514 22.3671L27.1626 21.9041L26.6679 22.1058L26.902 22.5861L27.3514 22.3671ZM33.4405 18.0489L33.85 18.3359L33.85 18.3359L33.4405 18.0489ZM28.0777 23.9499L28.5383 23.7553L28.5377 23.7539L28.0777 23.9499ZM28.314 24.5153L27.8514 24.7052L27.9967 25.0591L28.3763 25.0114L28.314 24.5153ZM35.9139 24.8671L35.8121 25.3566L35.8124 25.3567L35.9139 24.8671ZM35.9269 24.8698L35.8254 25.3594L36.4328 25.4853L36.4268 24.8649L35.9269 24.8698ZM33.4411 18.0481L33.8268 17.7299L33.4087 17.223L33.0317 17.7611L33.4411 18.0481ZM31.1079 34.0346L30.6149 34.118L30.7442 34.8826L31.3873 34.4492L31.1079 34.0346ZM28.9802 26.2379L28.9011 25.7442L28.303 25.8399L28.5104 26.4091L28.9802 26.2379ZM35.7918 26.7122L36.2855 26.7911L36.3532 26.3676L35.9449 26.2362L35.7918 26.7122ZM29.2671 35.0319L29.4625 35.4922L29.8261 35.3377L29.76 34.9483L29.2671 35.0319ZM26.932 26.7435L27.3985 26.5637L27.2289 26.1236L26.7797 26.2672L26.932 26.7435ZM18.2809 33.5865L17.8269 33.377L17.6605 33.7377L17.9742 33.9814L18.2809 33.5865ZM26.8595 26.7672L27.0239 27.2395L27.0312 27.2368L26.8595 26.7672ZM26.9054 26.752L27.0554 27.229L27.0577 27.2282L26.9054 26.752ZM26.1869 24.9348L26.3246 25.4154L26.8763 25.2574L26.6442 24.7325L26.1869 24.9348ZM25.3 23.0799L25.7453 22.8524L25.5558 22.4815L25.1568 22.6008L25.3 23.0799ZM25.7557 25.0658L25.9093 25.5417L25.9136 25.5402L25.7557 25.0658ZM16.8689 32.2758L16.4975 32.6105L17.2853 31.999L16.8689 32.2758ZM14.0735 24.7423L13.5738 24.7254L14.0735 24.7423ZM14.0769 24.6339L14.0962 24.1343L13.5907 24.1149L13.5771 24.6205L14.0769 24.6339ZM20.3354 15.109L20.7354 14.809L20.4908 14.4829L20.1221 14.6568L20.3354 15.109ZM24.3943 21.399L24.5226 21.8823L25.1473 21.7165L24.8299 21.1535L24.3943 21.399ZM14.3025 22.7316L13.8132 22.6289L13.6879 23.226L14.298 23.2315L14.3025 22.7316ZM14.3131 22.7317L14.3177 22.2317H14.3176L14.3131 22.7317ZM31.803 16.5118L31.802 16.5132L32.6331 17.0693L32.6341 17.0679L31.803 16.5118ZM24.9994 14.5674C27.6409 14.5674 30.0515 15.5479 31.8881 17.1651L32.549 16.4146C30.5366 14.6426 27.8932 13.5674 24.9994 13.5674V14.5674ZM22.5405 14.8594C23.329 14.6698 24.1517 14.5674 24.9994 14.5674V13.5674C24.0707 13.5674 23.1696 13.6797 22.3068 13.8871L22.5405 14.8594ZM22.842 14.0977L22.8242 14.074L22.0231 14.6724L22.0408 14.6962L22.842 14.0977ZM26.949 20.5011C25.1138 17.1361 23.105 14.4495 22.8418 14.0976L22.041 14.6964C22.2955 15.0368 24.2704 17.6782 26.0711 20.98L26.949 20.5011ZM31.8019 16.5133C31.7906 16.5303 30.3011 18.7875 26.3348 20.2723L26.6854 21.2088C30.9008 19.6308 32.5414 17.2065 32.6332 17.0692L31.8019 16.5133ZM27.5402 22.83C31.9428 21.0346 33.7705 18.4493 33.85 18.3359L33.0311 17.762C33.0254 17.7701 31.3365 20.2019 27.1626 21.9041L27.5402 22.83ZM28.5377 23.7539C28.3067 23.2119 28.0573 22.6742 27.8009 22.148L26.902 22.5861C27.1529 23.101 27.3949 23.6229 27.6177 24.1458L28.5377 23.7539ZM28.7765 24.3254C28.6986 24.1358 28.619 23.9466 28.5383 23.7553L27.6171 24.1444C27.6976 24.3351 27.7756 24.5205 27.8514 24.7052L28.7765 24.3254ZM36.0157 24.3776C35.72 24.3161 32.0218 23.5455 28.2516 24.0192L28.3763 25.0114C31.9727 24.5595 35.5339 25.2988 35.8121 25.3566L36.0157 24.3776ZM36.0284 24.3802L36.0154 24.3775L35.8124 25.3567L35.8254 25.3594L36.0284 24.3802ZM33.0554 18.3663C34.5189 20.1403 35.403 22.4054 35.4269 24.8746L36.4268 24.8649C36.4007 22.1589 35.4309 19.6743 33.8268 17.7299L33.0554 18.3663ZM33.85 18.3359L33.8506 18.335L33.0317 17.7611L33.031 17.762L33.85 18.3359ZM31.6009 33.9512C31.4866 33.2757 30.8977 30.0394 29.45 26.0667L28.5104 26.4091C29.9303 30.3055 30.5066 33.4778 30.6149 34.118L31.6009 33.9512ZM35.2981 26.6333C34.8343 29.5348 33.1713 32.0412 30.8284 33.6199L31.3873 34.4492C33.9533 32.7201 35.7768 29.9739 36.2855 26.7911L35.2981 26.6333ZM29.0592 26.7316C32.47 26.1856 35.4373 27.1234 35.6387 27.1882L35.9449 26.2362C35.6963 26.1562 32.547 25.1605 28.9011 25.7442L29.0592 26.7316ZM29.76 34.9483C29.5948 33.9747 28.9526 30.5969 27.3985 26.5637L26.4654 26.9233C27.9877 30.8739 28.6156 34.1818 28.7741 35.1156L29.76 34.9483ZM24.9994 36.397C26.5816 36.397 28.0899 36.0752 29.4625 35.4922L29.0716 34.5717C27.8204 35.1032 26.4448 35.397 24.9994 35.397V36.397ZM17.9742 33.9814C19.9132 35.4871 22.3477 36.397 24.9994 36.397V35.397C22.5808 35.397 20.36 34.568 18.5876 33.1915L17.9742 33.9814ZM26.6951 26.295C20.0686 28.6018 17.8805 33.2607 17.8269 33.377L18.7349 33.7959C18.7268 33.8134 20.7512 29.423 27.0239 27.2394L26.6951 26.295ZM26.7555 26.275C26.7419 26.2793 26.7155 26.2875 26.6877 26.2976L27.0312 27.2368C27.0338 27.2358 27.0381 27.2344 27.0554 27.229L26.7555 26.275ZM26.7797 26.2672L26.7531 26.2757L27.0577 27.2282L27.0843 27.2197L26.7797 26.2672ZM26.6442 24.7325C26.3655 24.1023 26.0619 23.4721 25.7453 22.8524L24.8548 23.3073C25.1644 23.9134 25.4597 24.5266 25.7297 25.137L26.6442 24.7325ZM25.9136 25.5402C26.0454 25.4964 26.1819 25.4563 26.3246 25.4154L26.0492 24.4541C25.9045 24.4955 25.7509 24.5404 25.5978 24.5914L25.9136 25.5402ZM17.2853 31.999C17.356 32.1626 17.3578 32.3808 17.3476 32.4203C17.3425 32.4362 17.3336 32.4604 17.3302 32.4687C17.3245 32.4823 17.3195 32.4925 17.3184 32.4947C17.3151 32.5015 17.3126 32.5062 17.3125 32.5064C17.3115 32.5082 17.3117 32.5077 17.3138 32.504C17.3176 32.4972 17.3246 32.4849 17.335 32.4672C17.3556 32.4319 17.388 32.3778 17.4321 32.3069C17.5203 32.1654 17.6547 31.9584 17.8349 31.703C18.1956 31.1918 18.7384 30.4887 19.4613 29.7273C20.9098 28.2018 23.0643 26.4603 25.9093 25.5416L25.602 24.59C22.548 25.5762 20.2572 27.4368 18.7362 29.0387C17.9744 29.841 17.4013 30.5829 17.0178 31.1265C16.826 31.3984 16.6811 31.6213 16.5834 31.7781C16.5346 31.8564 16.4973 31.9186 16.4717 31.9625C16.4589 31.9843 16.4486 32.0023 16.4409 32.0161C16.4373 32.0226 16.4332 32.0299 16.4295 32.037C16.428 32.0398 16.4244 32.0466 16.4204 32.0547C16.419 32.0575 16.4137 32.0683 16.4079 32.0823C16.4044 32.0908 16.3954 32.1151 16.3903 32.1311C16.3801 32.1707 16.3819 32.389 16.4526 32.5526L17.2853 31.999ZM13.5682 24.9822C13.5682 27.9148 14.6767 30.5893 16.4975 32.6105L17.2404 31.9411C15.5785 30.0963 14.5682 27.6579 14.5682 24.9822H13.5682ZM13.5738 24.7254C13.5712 24.8039 13.5682 24.8914 13.5682 24.9822H14.5682C14.5682 24.911 14.5705 24.8402 14.5733 24.7591L13.5738 24.7254ZM13.5771 24.6205C13.5762 24.6549 13.575 24.6892 13.5738 24.7254L14.5733 24.7591C14.5745 24.7235 14.5757 24.6858 14.5768 24.6474L13.5771 24.6205ZM25.1568 22.6008C19.6038 24.2609 14.2653 24.1408 14.0962 24.1343L14.0577 25.1336C14.2761 25.142 19.7394 25.2641 25.4432 23.5589L25.1568 22.6008ZM19.9354 15.409C20.0744 15.5943 22.0816 18.3142 23.9588 21.6445L24.8299 21.1535C22.9231 17.7706 20.8877 15.0121 20.7354 14.809L19.9354 15.409ZM14.7919 22.8343C15.4685 19.6104 17.6392 16.9332 20.5486 15.5613L20.1221 14.6568C16.935 16.1597 14.5555 19.0922 13.8132 22.6289L14.7919 22.8343ZM14.3176 22.2317L14.3071 22.2316L14.298 23.2315L14.3085 23.2316L14.3176 22.2317ZM24.2661 20.9157C19.137 22.2766 14.6746 22.235 14.3177 22.2317L14.3084 23.2316C14.6987 23.2352 19.2654 23.2771 24.5226 21.8823L24.2661 20.9157Z" fill="#353535"/>
</svg>
