<svg width="50" height="50" viewBox="0 0 50 50" fill="none" xmlns="http://www.w3.org/2000/svg">
<path d="M19.7233 12.2773L19.7005 11.7779L19.7004 11.7779L19.7233 12.2773ZM30.2746 12.2773L30.2975 11.7779L30.2973 11.7779L30.2746 12.2773ZM33.384 12.872L33.2031 13.3382L33.2032 13.3382L33.384 12.872ZM35.6506 14.348L35.2971 14.7016L35.2972 14.7017L35.6506 14.348ZM37.128 16.6155L37.5944 16.4352L37.5939 16.434L37.128 16.6155ZM37.7227 19.7222L38.2222 19.6998L38.2221 19.6988L37.7227 19.7222ZM37.7227 30.277L38.2221 30.3005L38.2222 30.2994L37.7227 30.277ZM37.128 33.3837L37.5939 33.5653L37.5944 33.5639L37.128 33.3837ZM35.6506 35.6509L35.2972 35.2972L35.2969 35.2976L35.6506 35.6509ZM33.3848 37.1283L33.2037 36.6622L33.2036 36.6622L33.3848 37.1283ZM30.2765 37.7229L30.2992 38.2224L30.2993 38.2224L30.2765 37.7229ZM19.7222 37.7229L19.6993 38.2224L19.6995 38.2224L19.7222 37.7229ZM16.615 37.1283L16.7961 36.6622L16.7961 36.6622L16.615 37.1283ZM14.3483 35.6509L14.702 35.2976L14.7018 35.2973L14.3483 35.6509ZM12.872 33.3834L12.406 33.5645L12.406 33.5645L12.872 33.3834ZM12.2773 30.2767L11.7778 30.2994L11.7779 30.2997L12.2773 30.2767ZM12.2771 19.7219L11.7776 19.6995L11.7776 19.6996L12.2771 19.7219ZM12.8717 16.6152L13.3376 16.7968L13.3376 16.7968L12.8717 16.6152ZM14.3491 14.348L14.7025 14.7017L14.7027 14.7015L14.3491 14.348ZM16.6166 12.872L16.7976 13.3381L16.7978 13.338L16.6166 12.872ZM1.5 25C1.5 12.0213 12.0213 1.5 25 1.5V0.5C11.469 0.5 0.5 11.469 0.5 25H1.5ZM25 48.5C12.0213 48.5 1.5 37.9787 1.5 25H0.5C0.5 38.531 11.469 49.5 25 49.5V48.5ZM48.5 25C48.5 37.9787 37.9787 48.5 25 48.5V49.5C38.531 49.5 49.5 38.531 49.5 25H48.5ZM25 1.5C37.9787 1.5 48.5 12.0213 48.5 25H49.5C49.5 11.469 38.531 0.5 25 0.5V1.5ZM25.0012 11.7C21.5223 11.7 21.0772 11.7152 19.7005 11.7779L19.746 12.7768C21.1 12.7152 21.5275 12.7 25.0012 12.7V11.7ZM24.9972 12.7H25.0012V11.7H24.9972V12.7ZM30.2973 11.7779C28.9207 11.7152 28.4772 11.7 24.9972 11.7V12.7C28.472 12.7 28.8978 12.7152 30.2519 12.7768L30.2973 11.7779ZM33.5648 12.4058C32.6922 12.0674 31.7073 11.8424 30.2975 11.7779L30.2517 12.7768C31.5672 12.8371 32.4437 13.0436 33.2031 13.3382L33.5648 12.4058ZM36.0042 13.9945C35.2399 13.2302 34.4679 12.7559 33.5647 12.4058L33.2032 13.3382C33.9854 13.6414 34.6374 14.0419 35.2971 14.7016L36.0042 13.9945ZM37.5939 16.434C37.2427 15.5326 36.7688 14.7585 36.0041 13.9943L35.2972 14.7017C35.9565 15.3605 36.3573 16.0147 36.6621 16.797L37.5939 16.434ZM38.2221 19.6988C38.1559 18.2891 37.9307 17.3052 37.5944 16.4352L36.6616 16.7958C36.9546 17.5536 37.1614 18.4299 37.2232 19.7457L38.2221 19.6988ZM38.3 25.0001C38.3 21.521 38.284 21.0761 38.2222 19.6998L37.2232 19.7447C37.284 21.099 37.3 21.5267 37.3 25.0001H38.3ZM38.2222 30.2994C38.284 28.9231 38.3 28.4793 38.3 25.0001H37.3C37.3 28.4736 37.284 28.9002 37.2232 30.2545L38.2222 30.2994ZM37.5944 33.5639C37.9307 32.6937 38.1559 31.7096 38.2221 30.3005L37.2232 30.2535C37.1614 31.5687 36.9546 32.4454 36.6616 33.2034L37.5944 33.5639ZM36.0041 36.0046C36.7688 35.2405 37.2427 34.4664 37.5939 33.5653L36.6621 33.2021C36.3573 33.9842 35.9565 34.6384 35.2972 35.2972L36.0041 36.0046ZM33.5658 37.5943C34.4678 37.2439 35.2409 36.7686 36.0044 36.0043L35.2969 35.2976C34.638 35.9572 33.9849 36.3587 33.2037 36.6622L33.5658 37.5943ZM30.2993 38.2224C31.7091 38.1578 32.6946 37.9329 33.5659 37.5943L33.2036 36.6622C32.446 36.9567 31.5692 37.1632 30.2536 37.2235L30.2993 38.2224ZM24.9996 38.3003C28.4788 38.3003 28.9225 38.2851 30.2992 38.2224L30.2537 37.2234C28.8997 37.2851 28.4736 37.3003 24.9996 37.3003V38.3003ZM19.6995 38.2224C21.0761 38.2851 21.521 38.3003 24.9996 38.3003V37.3003C21.5262 37.3003 21.099 37.2851 19.7449 37.2234L19.6995 38.2224ZM16.4338 37.5943C17.305 37.9329 18.2898 38.1578 19.6993 38.2224L19.7451 37.2235C18.4298 37.1632 17.5537 36.9567 16.7961 36.6622L16.4338 37.5943ZM13.9945 36.0043C14.7582 36.7688 15.5323 37.244 16.4339 37.5943L16.7961 36.6622C16.0149 36.3587 15.3608 35.9571 14.702 35.2976L13.9945 36.0043ZM12.406 33.5645C12.7564 34.4662 13.2304 35.2404 13.9948 36.0045L14.7018 35.2973C14.0427 34.6385 13.642 33.9844 13.338 33.2023L12.406 33.5645ZM11.7779 30.2997C11.8427 31.7095 12.0676 32.6939 12.406 33.5645L13.3381 33.2023C13.0438 32.4452 12.8373 31.5693 12.7768 30.2538L11.7779 30.2997ZM11.7 25.0001C11.7 28.4791 11.7155 28.9228 11.7778 30.2994L12.7768 30.2541C12.7155 28.8999 12.7 28.4738 12.7 25.0001H11.7ZM11.7776 19.6996C11.716 21.0759 11.7 21.521 11.7 25.0001H12.7C12.7 21.5267 12.716 21.0987 12.7766 19.7443L11.7776 19.6996ZM12.4059 16.4337C12.0663 17.3048 11.841 18.2899 11.7776 19.6995L12.7766 19.7444C12.8358 18.4297 13.0425 17.5539 13.3376 16.7968L12.4059 16.4337ZM13.9957 13.9943C13.231 14.7585 12.7571 15.5326 12.4059 16.4337L13.3376 16.7968C13.6424 16.0147 14.0432 15.3605 14.7025 14.7017L13.9957 13.9943ZM16.4356 12.4059C15.5338 12.7561 14.7596 13.2301 13.9955 13.9945L14.7027 14.7015C15.3616 14.0424 16.0156 13.6418 16.7976 13.3381L16.4356 12.4059ZM19.7004 11.7779C18.2906 11.8424 17.3061 12.0674 16.4353 12.406L16.7978 13.338C17.5548 13.0436 18.4306 12.8371 19.7462 12.7768L19.7004 11.7779Z" fill="#353535"/>
<path d="M31.8338 16.6319V17.1319H32.3338V16.6319H31.8338ZM31.8338 16.6313V16.1313H31.3338V16.6313H31.8338ZM25.0009 18.4266L25.0009 17.9266L25.0009 17.9266L25.0009 18.4266ZM31.8338 16.1319C30.7099 16.1319 29.7978 17.0427 29.7978 18.1674H30.7978C30.7978 17.5955 31.2617 17.1319 31.8338 17.1319V16.1319ZM31.3338 16.6313V16.6319H32.3338V16.6313H31.3338ZM33.8698 18.1674C33.8698 17.0432 32.958 16.1313 31.8338 16.1313V17.1313C32.4057 17.1313 32.8698 17.5955 32.8698 18.1674H33.8698ZM31.8338 20.2034C32.958 20.2034 33.8698 19.2915 33.8698 18.1674H32.8698C32.8698 18.7392 32.4057 19.2034 31.8338 19.2034V20.2034ZM29.7978 18.1674C29.7978 19.2915 30.7097 20.2034 31.8338 20.2034V19.2034C31.2619 19.2034 30.7978 18.7392 30.7978 18.1674H29.7978ZM25.0009 17.9266C21.0947 17.9267 17.9278 21.0937 17.9278 25H18.9278C18.9278 21.646 21.647 18.9267 25.0009 18.9266L25.0009 17.9266ZM32.0735 25C32.0735 21.0937 28.9073 17.9266 25.0009 17.9266V18.9266C28.3549 18.9266 31.0735 21.6459 31.0735 25H32.0735ZM25.0012 32.072C28.9075 32.072 32.0735 28.9063 32.0735 25H31.0735C31.0735 28.354 28.3553 31.072 25.0012 31.072V32.072ZM17.9278 25C17.9278 28.9064 21.095 32.072 25.0012 32.072V31.072C21.647 31.072 18.9278 28.3539 18.9278 25H17.9278Z" fill="#353535"/>
</svg>
