<svg width="50" height="50" viewBox="0 0 50 50" fill="none" xmlns="http://www.w3.org/2000/svg">
<path fill-rule="evenodd" clip-rule="evenodd" d="M37.2795 17.5626L33.3447 36.1052C33.3446 36.1055 33.3445 36.1058 33.3445 36.1062C33.1929 36.8322 32.8678 37.4308 32.2839 37.694C31.7025 37.9562 31.0486 37.8022 30.4384 37.4656L30.4095 37.4496L30.3829 37.4299L24.727 33.2513L22.1486 35.7585L22.1485 35.7585C22.1371 35.7696 22.1255 35.7809 22.1137 35.7925C21.9653 35.9373 21.7816 36.1166 21.5557 36.2514C21.2915 36.4091 20.986 36.5 20.6 36.5H20.0655L20.1011 35.9667L20.4913 30.1214L20.2195 29.9201L20.673 29.5108L30.1605 20.949L17.9141 28.6752L17.7188 28.7984L17.4983 28.7296L11.5683 26.8787C11.5678 26.8786 11.5674 26.8785 11.5669 26.8783C11.2049 26.7673 10.8857 26.6087 10.654 26.39C10.4135 26.163 10.2524 25.8521 10.2888 25.4884C10.3233 25.1434 10.5258 24.855 10.7804 24.63C11.0381 24.4022 11.3891 24.2023 11.8162 24.031L11.8224 24.0285L11.8224 24.0285L34.9277 15.1192C35.593 14.8226 36.3374 14.8738 36.851 15.3705C37.3595 15.8623 37.5033 16.6568 37.2795 17.5626ZM21.4938 30.1171L21.1464 35.3216C21.2316 35.2553 21.3215 35.1678 21.4491 35.0438L21.4514 35.0415L21.4515 35.0415L24.3341 32.2385L24.6384 31.9426L24.9798 32.1948L30.9495 36.6053C31.4263 36.8621 31.7144 36.8538 31.8729 36.7824C32.0317 36.7108 32.2423 36.4929 32.3657 35.901L32.3661 35.8993L36.3031 17.3467L36.3049 17.3381L36.3071 17.3295C36.4833 16.623 36.3183 16.2465 36.1558 16.0893C36.0002 15.9388 35.714 15.8604 35.327 16.0361L35.3138 16.0421L35.3002 16.0474L12.1854 24.9603C11.8252 25.1051 11.5865 25.2521 11.4426 25.3793C11.2951 25.5097 11.2841 25.5845 11.2838 25.5878C11.2838 25.5879 11.283 25.5879 11.2856 25.594C11.2893 25.6025 11.3022 25.6267 11.3404 25.6628C11.4212 25.739 11.5831 25.8375 11.8611 25.9226L11.8637 25.9234L17.5758 27.7062L31.1151 19.1644L31.1226 19.1597L31.1226 19.1598C31.3295 19.0344 31.5414 18.9513 31.7412 18.9101C31.9315 18.8709 32.1494 18.8621 32.3479 18.9302C32.45 18.9652 32.57 19.0289 32.6662 19.1433C32.7691 19.2656 32.8218 19.4195 32.8158 19.58C32.8053 19.8644 32.6205 20.0779 32.4706 20.2114C32.47 20.2119 32.4694 20.2124 32.4688 20.213L21.4938 30.1171ZM25 1.5C12.0213 1.5 1.5 12.0213 1.5 25C1.5 37.9787 12.0213 48.5 25 48.5C37.9787 48.5 48.5 37.9787 48.5 25C48.5 12.0213 37.9787 1.5 25 1.5ZM0.5 25C0.5 11.469 11.469 0.5 25 0.5C38.531 0.5 49.5 11.469 49.5 25C49.5 38.531 38.531 49.5 25 49.5C11.469 49.5 0.5 38.531 0.5 25Z" fill="#353535"/>
</svg>
