<svg width="50" height="50" fill="none" xmlns="http://www.w3.org/2000/svg"><path d="M28.558 19.67h-.5v.5h.5v-.5zm6.78 0v.5h.5v-.5h-.5zm-6.78-1.942v-.5h-.5v.5h.5zm6.78 0h.5v-.5h-.5v.5zM34.74 21.3l-.202.458.202-.458zm-6.934 1.06l-.352-.356h-.001l.353.355zm.176 9.22l.312-.39-.002-.002-.31.392zm8.52-.262l-.362-.345-.003.003.366.342zm1.134-2.087l.496.06.068-.56h-.564v.5zm-3.123 0v-.5h-.3l-.141.265.44.235zm-.63.795l-.313-.39-.002.001.314.389zm-3.385.093l.264-.425-.005-.003-.259.428zm-1.225-2.433v-.5h-.522l.023.522.5-.022zm8.524 0v.5h.493l.007-.494-.5-.006zm-.102-2.292l-.494.078.494-.078zm-.935-2.386l-.413.281.004.007.409-.288zm-12.815-4.345l.404-.294-.003-.005-.401.3zM19.845 17l.007-.5h-.007v.5zm4.094 6.344l.382.323-.382-.323zm-1.207.888l-.225-.447-1.039.522 1.094.395.17-.47zm1.829 1.378l.418-.274-.001-.002-.418.276zm-.09 4.775l-.422-.27-.005.009.426.261zm-1.12 1.228l-.299-.402-.003.003.301.4zm-1.787.784l.1.49h.001l-.101-.49zm-9.364.21h-.5v.5h.5v-.5zM12.2 17v-.5h-.5v.5h.5zM1.5 25C1.5 12.021 12.021 1.5 25 1.5v-1C11.469.5.5 11.469.5 25h1zM25 48.5C12.021 48.5 1.5 37.979 1.5 25h-1C.5 38.531 11.469 49.5 25 49.5v-1zM48.5 25c0 12.979-10.521 23.5-23.5 23.5v1c13.531 0 24.5-10.969 24.5-24.5h-1zM25 1.5c12.979 0 23.5 10.521 23.5 23.5h1C49.5 11.469 38.531.5 25 .5v1zm3.558 18.67h6.78v-1h-6.78v1zm-.5-2.442v1.942h1v-1.942h-1zm7.28-.5h-6.78v1h6.78v-1zm.5 2.442v-1.942h-1v1.942h1zm-3.85 1.588c.96 0 1.806.17 2.55.5l.404-.915c-.887-.393-1.874-.585-2.953-.585v1zm-3.83 1.457c.97-.96 2.23-1.457 3.83-1.457v-1c-1.828 0-3.352.576-4.534 1.746l.703.71zm-1.463 4.246c0-1.912.512-3.3 1.463-4.247l-.705-.71c-1.195 1.19-1.758 2.868-1.758 4.957h1zm1.597 4.228c-1.03-.817-1.597-2.183-1.597-4.228h-1c0 2.22.62 3.936 1.976 5.011l.621-.784zm3.81 1.311c-1.449 0-2.712-.436-3.808-1.31l-.624.781c1.279 1.02 2.764 1.529 4.431 1.529v-1zm4.035-1.524c-.932.998-2.254 1.524-4.035 1.524v1c1.99 0 3.603-.596 4.766-1.841l-.73-.683zm1.003-1.805c-.066.54-.372 1.141-1 1.802l.725.689c.715-.753 1.167-1.544 1.267-2.37l-.992-.12zm-2.627.56h3.123v-1h-3.123v1zm-.319.685a3.01 3.01 0 00.76-.95l-.882-.47a2.018 2.018 0 01-.502.64l.624.78zm-2.008.638c.78 0 1.467-.2 2.01-.64l-.628-.777c-.327.264-.774.417-1.382.417v1zm-1.951-.51c.56.348 1.216.51 1.95.51v-1c-.584 0-1.05-.128-1.423-.36l-.527.85zm-1.461-2.836c.056 1.266.51 2.262 1.466 2.84l.517-.857c-.585-.352-.938-.98-.984-2.028l-1 .045zm9.023-.522h-8.524v1h8.524v-1zm-.596-1.714c.076.486.11 1.218.096 2.207l1 .013c.014-1.004-.019-1.804-.108-2.375l-.988.155zm-.85-2.176c.435.617.719 1.339.85 2.175l.988-.154c-.152-.972-.488-1.842-1.02-2.597l-.818.576zm-1.812-1.538c.726.32 1.327.826 1.808 1.531l.826-.562c-.579-.851-1.323-1.485-2.232-1.884l-.402.915zm-10.193-3.394c-.933-1.253-2.48-1.835-4.494-1.864l-.015 1c1.845.027 3.03.553 3.707 1.462l.802-.598zm.824 2.68c0-1.016-.268-1.916-.82-2.675l-.81.588c.414.568.63 1.255.63 2.088h1zm-.85 2.622c.585-.691.85-1.584.85-2.621h-1c0 .866-.219 1.51-.613 1.976l.764.645zm-1.364 1.012c.57-.287 1.034-.62 1.365-1.011l-.764-.646c-.217.256-.557.516-1.05.764l.45.893zm2.022.656c-.481-.73-1.183-1.25-2.077-1.573l-.339.94c.72.26 1.234.658 1.581 1.184l.835-.55zm.698 2.562c0-.975-.225-1.837-.697-2.56l-.837.547c.347.53.534 1.195.534 2.013h1zm-.785 2.76c.526-.82.785-1.745.785-2.76h-1c0 .836-.21 1.571-.627 2.219l.842.54zm-1.243 1.359c.501-.372.918-.83 1.248-1.368l-.852-.523a3.837 3.837 0 01-.992 1.088l.596.803zm-1.983.872c.752-.156 1.417-.444 1.987-.875l-.603-.798c-.439.332-.963.564-1.587.694l.203.979zm-2.337.22c.832 0 1.61-.071 2.336-.22l-.2-.98c-.65.134-1.36.2-2.136.2v1zm-7.128 0h7.128v-1H12.2v1zM11.7 17v15.606h1V17h-1zm8.145-.5H12.2v1h7.645v-1zm-4.492 3.21v-.5h-.5v.5h.5zm5.315.243l.192-.461-.018-.008-.017-.005-.157.474zm.206 2.813l.258.429.001-.001-.259-.428zm-5.52.388h-.5v.5h.5v-.5zm18.453.715l.326-.379-.004-.003-.322.382zm.814 1.825v.5h.536l-.037-.534-.499.034zm-5.273 0l-.494-.073-.085.573h.58v-.5zm-13.995.042v-.5h-.5v.5h.5zm3.896 0l.004-.5h-.004v.5zm-3.896 4.162h-.5v.5h.5v-.5zm5.445-.275l.216.451.004-.002-.22-.449zM20.83 26l.206-.456h-.001L20.83 26zm-2.034-6.79h-3.444v1h3.444v-1zm2.028.269c-.559-.185-1.24-.269-2.028-.269v1c.726 0 1.292.079 1.715.218l.313-.95zm1.192 1.918c0-.427-.083-.824-.281-1.16a1.78 1.78 0 00-.876-.745l-.383.923c.193.08.316.191.397.328.084.144.143.352.143.654h1zm-.884 1.797c.623-.377.884-1.03.884-1.797h-1c0 .539-.17.8-.401.941l.517.856zm-1.932.46c.743 0 1.399-.14 1.93-.46l-.514-.857c-.33.198-.79.317-1.416.317v1zm-3.848 0H19.2v-1h-3.848v1zm-.5-3.944v3.444h1V19.71h-1zm17.137 3.038c-.878 0-1.632.25-2.182.81l.713.7c.314-.319.781-.51 1.47-.51v-1zm2.14.74c-.593-.5-1.315-.74-2.14-.74v1c.62 0 1.105.175 1.494.503l.645-.764zm.99 2.172c-.063-.902-.378-1.646-.987-2.17l-.652.758c.36.31.593.779.641 1.48l.998-.069zm-5.771.534h5.272v-1h-5.273v1zm.459-2.637c-.522.531-.83 1.232-.954 2.064l.99.146c.098-.67.335-1.16.677-1.509l-.713-.7zm-14.455 2.679h3.896v-1h-3.896v1zm.5 3.662v-4.162h-1v4.162h1zm3.342-.5h-3.842v1h3.842v-1zm1.386-.226c-.284.137-.734.226-1.386.226v1c.72 0 1.341-.095 1.819-.324l-.433-.902zm.757-1.497c0 .422-.077.737-.201.97a1.218 1.218 0 01-.56.53l.441.897a2.217 2.217 0 001-.956c.223-.415.32-.903.32-1.44h-1zm-.713-1.22c.256.117.424.269.533.45.11.183.18.431.18.77h1c0-.475-.098-.912-.323-1.286a2.136 2.136 0 00-.978-.845l-.412.912zm-1.38-.22c.645.006 1.095.093 1.38.221l.41-.912c-.466-.21-1.073-.302-1.782-.308l-.009 1z" fill="#353535"/></svg>