<svg width="50" height="50" fill="none" xmlns="http://www.w3.org/2000/svg"><path d="M19.723 12.277l-.022-.5.022.5zm10.552 0l.023-.5-.023.5zm3.109.595l-.18.466.18-.466zm2.267 1.476l-.354.354.354-.354zm1.477 2.268l.466-.18v-.002l-.466.181zm.595 3.106l.5-.022v-.001l-.5.023zm0 10.555l.5.023-.5-.023zm-.595 3.107l.466.181v-.001l-.466-.18zm-1.477 2.267l-.354-.354.354.354zm-2.266 1.477l-.181-.466.18.466zm-3.108.595l.022.5-.023-.5zm-10.555 0l-.023.5.023-.5zm-3.107-.595l.181-.466-.181.466zm-2.267-1.477l.354-.353-.354.353zm-1.476-2.268l-.466.181.466-.18zm-.595-3.106l-.5.022.5-.022zm0-10.555l-.5-.023.5.023zm.595-3.107l.466.182-.466-.182zm1.477-2.267l.354.354-.354-.354zm2.268-1.476l.18.466-.18-.466zM1.5 25C1.5 12.021 12.021 1.5 25 1.5v-1C11.469.5.5 11.469.5 25h1zM25 48.5C12.021 48.5 1.5 37.979 1.5 25h-1C.5 38.531 11.469 49.5 25 49.5v-1zM48.5 25c0 12.979-10.521 23.5-23.5 23.5v1c13.531 0 24.5-10.969 24.5-24.5h-1zM25 1.5c12.979 0 23.5 10.521 23.5 23.5h1C49.5 11.469 38.531.5 25 .5v1zm.001 10.2c-3.479 0-3.924.015-5.3.078l.045.999c1.354-.062 1.782-.077 5.255-.077v-1zm-.004 1h.004v-1h-.004v1zm5.3-.922c-1.376-.063-1.82-.078-5.3-.078v1c3.475 0 3.9.015 5.255.077l.045-1zm3.268.628c-.873-.339-1.858-.564-3.267-.628l-.046.999c1.315.06 2.192.267 2.951.561l.362-.932zm2.44 1.588a6.754 6.754 0 00-2.44-1.588l-.362.932a5.757 5.757 0 012.094 1.364l.707-.707zm1.589 2.44a6.782 6.782 0 00-1.59-2.44l-.707.708a5.784 5.784 0 011.365 2.095l.932-.363zm.628 3.265c-.066-1.41-.291-2.394-.628-3.264l-.932.36c.293.759.5 1.635.561 2.95l1-.046zM38.3 25c0-3.479-.016-3.924-.078-5.3l-.999.045c.061 1.354.077 1.782.077 5.255h1zm-.078 5.3c.062-1.377.078-1.82.078-5.3h-1c0 3.474-.016 3.9-.077 5.255l1 .044zm-.628 3.264c.337-.87.562-1.854.628-3.264l-.999-.047c-.062 1.316-.268 2.192-.561 2.95l.932.36zm-1.59 2.44a6.782 6.782 0 001.59-2.439l-.932-.363a5.785 5.785 0 01-1.365 2.095l.707.708zm-2.438 1.59a6.762 6.762 0 002.438-1.59l-.707-.706a5.765 5.765 0 01-2.093 1.364l.362.932zm-3.267.628c1.41-.064 2.396-.29 3.267-.628l-.362-.932c-.758.295-1.635.501-2.95.562l.045.998zM25 38.3c3.48 0 3.924-.015 5.3-.078l-.045-.999c-1.354.062-1.78.077-5.254.077v1zm-5.3-.078c1.377.063 1.822.078 5.3.078v-1c-3.473 0-3.9-.015-5.254-.077l-.046 1zm-3.265-.628c.871.339 1.856.564 3.265.628l.046-.998c-1.315-.06-2.191-.267-2.949-.562l-.362.932zm-2.44-1.59a6.766 6.766 0 002.44 1.59l.362-.932a5.768 5.768 0 01-2.094-1.364l-.707.706zm-1.588-2.44a6.77 6.77 0 001.589 2.44l.707-.707a5.773 5.773 0 01-1.364-2.095l-.932.363zm-.628-3.264c.065 1.41.29 2.394.628 3.265l.932-.363c-.294-.757-.5-1.633-.561-2.948l-1 .046zM11.7 25c0 3.48.016 3.923.078 5.3l.999-.046C12.716 28.9 12.7 28.474 12.7 25h-1zm.078-5.3c-.062 1.376-.078 1.821-.078 5.3h1c0-3.473.016-3.901.077-5.256l-1-.044zm.628-3.266c-.34.87-.565 1.856-.628 3.265l.999.045c.059-1.314.266-2.19.56-2.947l-.931-.363zm1.59-2.44a6.784 6.784 0 00-1.59 2.44l.932.363a5.785 5.785 0 011.365-2.095l-.707-.708zm2.44-1.588a6.766 6.766 0 00-2.44 1.588l.707.707a5.77 5.77 0 012.095-1.363l-.362-.932zm3.264-.628c-1.41.064-2.394.29-3.265.628l.363.932c.757-.294 1.633-.5 2.948-.561l-.046-1zm12.134 4.854v.5h.5v-.5h-.5zm0 0v-.5h-.5v.5h.5zM25 18.426v-.5.5zm6.833-2.295c-1.124 0-2.036.91-2.036 2.035h1c0-.572.464-1.035 1.036-1.035v-1zm-.5.5h1-1zm2.536 1.535a2.036 2.036 0 00-2.036-2.036v1c.572 0 1.036.465 1.036 1.036h1zm-2.036 2.036a2.036 2.036 0 002.036-2.036h-1c0 .572-.464 1.036-1.036 1.036v1zm-2.036-2.036c0 1.124.912 2.036 2.036 2.036v-1a1.036 1.036 0 01-1.036-1.036h-1zM25 17.927A7.074 7.074 0 0017.928 25h1A6.074 6.074 0 0125 18.927v-1zM32.074 25A7.073 7.073 0 0025 17.927v1A6.073 6.073 0 0131.073 25h1zM25 32.072A7.072 7.072 0 0032.074 25h-1A6.072 6.072 0 0125 31.072v1zM17.928 25A7.073 7.073 0 0025 32.072v-1A6.072 6.072 0 0118.928 25h-1z" fill="#353535"/></svg>