<svg width="417" height="417" fill="none" xmlns="http://www.w3.org/2000/svg"><circle cx="208.5" cy="208.5" r="208.5" fill="#C19CF6"/><path d="M269.649 155.335c-1.465-1.521-4.199-3.601-8.203-6.238-3.79-2.633-8.542-5.177-14.256-7.634-5.501-2.452-11.541-4.594-18.121-6.427a71.975 71.975 0 00-20.101-3.265c-11.945-.228-21.052 1.838-27.324 6.199-6.058 4.365-9.164 10.6-9.319 18.705-.118 6.186 1.708 11.128 5.478 14.828 3.77 3.699 9.47 6.902 17.099 9.608 7.63 2.707 17.175 5.663 28.636 8.869 14.861 3.912 27.68 8.637 38.456 14.178 10.994 5.331 19.288 12.317 24.884 20.959 5.813 8.433 8.587 19.581 8.322 33.445-.232 12.158-2.671 22.567-7.318 31.226-4.642 8.446-10.96 15.26-18.954 20.442-7.994 5.181-17.027 8.956-27.101 11.324-10.07 2.154-20.757 3.124-32.062 2.908-11.304-.217-22.586-1.606-33.846-4.168-11.26-2.562-22.075-6.076-32.445-10.542-10.365-4.679-19.862-10.195-28.489-16.548l20.245-37.7c1.883 1.957 5.246 4.582 10.091 7.875 4.849 3.08 10.762 6.287 17.739 9.621 6.982 3.12 14.612 5.827 22.889 8.118a101.39 101.39 0 0025.215 3.683c11.944.228 21.048-1.625 27.311-5.559 6.263-3.934 9.466-9.634 9.608-17.1.131-6.825-2.22-12.204-7.052-16.137-4.833-3.933-11.595-7.37-20.287-10.31-8.688-3.153-18.972-6.55-30.851-10.191-14.213-4.326-26.072-9.034-35.577-14.123-9.5-5.302-16.523-11.838-21.069-19.606-4.545-7.768-6.708-17.411-6.488-28.929.298-15.571 4.172-28.512 11.624-38.825 7.669-10.522 17.847-18.329 30.533-23.421 12.691-5.305 26.714-7.81 42.072-7.517 10.664.204 20.667 1.568 30.007 4.094 9.553 2.53 18.452 5.794 26.698 9.792 8.245 3.998 15.63 8.3 22.157 12.906l-20.201 35.46z" fill="#353535"/></svg>