<svg width="417" height="417" viewBox="0 0 417 417" fill="none" xmlns="http://www.w3.org/2000/svg">
<circle cx="208.5" cy="208.5" r="208.5" fill="#C19CF6"/>
<path d="M269.649 155.335C268.184 153.814 265.45 151.734 261.446 149.097C257.656 146.464 252.904 143.92 247.19 141.463C241.689 139.011 235.649 136.869 229.069 135.036C222.494 132.99 215.793 131.902 208.968 131.771C197.023 131.543 187.916 133.609 181.644 137.97C175.586 142.335 172.48 148.57 172.325 156.675C172.207 162.861 174.033 167.803 177.803 171.503C181.573 175.202 187.273 178.405 194.902 181.111C202.532 183.818 212.077 186.774 223.538 189.98C238.399 193.892 251.218 198.617 261.994 204.158C272.988 209.489 281.282 216.475 286.878 225.117C292.691 233.55 295.465 244.698 295.2 258.562C294.968 270.72 292.529 281.129 287.882 289.788C283.24 298.234 276.922 305.048 268.928 310.23C260.934 315.411 251.901 319.186 241.827 321.554C231.757 323.708 221.07 324.678 209.765 324.462C198.461 324.245 187.179 322.856 175.919 320.294C164.659 317.732 153.844 314.218 143.474 309.752C133.109 305.073 123.612 299.557 114.985 293.204L135.23 255.504C137.113 257.461 140.476 260.086 145.321 263.379C150.17 266.459 156.083 269.666 163.06 273C170.042 276.12 177.672 278.827 185.949 281.118C194.227 283.41 202.632 284.638 211.164 284.801C223.108 285.029 232.212 283.176 238.475 279.242C244.738 275.308 247.941 269.608 248.083 262.142C248.214 255.317 245.863 249.938 241.031 246.005C236.198 242.072 229.436 238.635 220.744 235.695C212.056 232.542 201.772 229.145 189.893 225.504C175.68 221.178 163.821 216.47 154.316 211.381C144.816 206.079 137.793 199.543 133.247 191.775C128.702 184.007 126.539 174.364 126.759 162.846C127.057 147.275 130.931 134.334 138.383 124.021C146.052 113.499 156.23 105.692 168.916 100.6C181.607 95.2949 195.63 92.7891 210.988 93.0827C221.652 93.2865 231.655 94.6513 240.995 97.1769C250.548 99.7066 259.447 102.971 267.693 106.969C275.938 110.967 283.323 115.269 289.85 119.875L269.649 155.335Z" fill="#353535"/>
</svg>
