<svg width="50" height="50" fill="none" xmlns="http://www.w3.org/2000/svg"><path d="M37.539 22.409l-.49.1.49-.1zm0 5.146l-.49-.1.49.1zm-.747 2.402l-.46-.195.46.195zm-1.18 2.17l-.414-.28v.001l.414.28zM34.05 34.02l.353.354.001-.001-.354-.353zm-1.893 1.56l.279.415.001-.001-.28-.414zm-2.175 1.178l.194.461h.001l-.195-.46zm-2.404.744l-.1-.49h-.001l.1.49zm-5.156 0l.1-.49-.1.49zm-2.405-.744l-.195.46v.001l.195-.46zm-2.175-1.178l-.28.414.28-.414zm-1.893-1.56l-.354.353.354-.353zm-1.563-1.892l.415-.28-.415.28zm-1.18-2.17l.46-.196-.46.195zm-.747-2.403l-.49.1.49-.1zm0-5.146l-.49-.1.49.1zm.747-2.402l.46.195-.46-.195zm1.18-2.172l.415.28-.415-.28zm1.563-1.892l-.353-.354.353.354zm1.893-1.559l-.28-.414.28.414zm2.175-1.18l-.195-.46.195.46zm2.405-.744l.1.49-.1-.49zm5.156 0l-.1.49.1-.49zm2.404.744l.196-.46-.001-.001-.195.46zm2.175 1.18l.28-.414-.28.414zm1.894 1.559l.354-.353-.002-.002-.352.355zm1.56 1.892l-.414.28h.002l.413-.28zm1.181 2.172l-.46.194v.001l.46-.195zM1.5 25C1.5 12.021 12.021 1.5 25 1.5v-1C11.469.5.5 11.469.5 25h1zM25 48.5C12.021 48.5 1.5 37.979 1.5 25h-1C.5 38.531 11.469 49.5 25 49.5v-1zM48.5 25c0 12.979-10.521 23.5-23.5 23.5v1c13.531 0 24.5-10.969 24.5-24.5h-1zM25 1.5c12.979 0 23.5 10.521 23.5 23.5h1C49.5 11.469 38.531.5 25 .5v1zm13.3 23.482c0-.9-.091-1.8-.271-2.674l-.98.202c.166.807.251 1.64.251 2.472h1zm-.271 2.674a13.3 13.3 0 00.271-2.674h-1c0 .832-.085 1.663-.251 2.472l.98.202zm-.776 2.497c.34-.804.6-1.643.776-2.497l-.98-.201a12.2 12.2 0 01-.717 2.307l.92.39zm-1.228 2.256c.483-.709.895-1.469 1.228-2.257l-.921-.39c-.307.729-.688 1.43-1.134 2.085l.827.562zm-1.62 1.964c.6-.601 1.146-1.261 1.621-1.965l-.829-.56a12.39 12.39 0 01-1.5 1.819l.707.706zm-1.968 1.62a13.645 13.645 0 001.966-1.619l-.705-.709c-.557.555-1.17 1.06-1.822 1.501l.561.828zm-2.26 1.226a13.427 13.427 0 002.259-1.224l-.559-.83c-.657.443-1.36.824-2.09 1.133l.39.92zm-2.499.773a13.364 13.364 0 002.498-.773l-.388-.921c-.742.313-1.52.552-2.31.715l.2.98zM25 38.265c.901 0 1.803-.093 2.68-.273l-.202-.98c-.81.167-1.645.252-2.478.252v1zm-2.678-.273c.876.18 1.777.273 2.678.273v-1c-.833 0-1.667-.086-2.476-.252l-.202.979zm-2.499-.773c.804.339 1.645.598 2.5.773l.2-.98a12.32 12.32 0 01-2.311-.714l-.389.921zm-2.26-1.224c.71.478 1.472.89 2.26 1.224l.39-.921c-.73-.31-1.434-.69-2.091-1.133l-.559.83zm-1.966-1.621c.6.599 1.262 1.144 1.965 1.62l.561-.828a12.565 12.565 0 01-1.82-1.5l-.706.708zm-1.624-1.966a13.391 13.391 0 001.623 1.965l.708-.707a12.397 12.397 0 01-1.502-1.818l-.829.56zm-1.226-2.256c.334.788.747 1.548 1.226 2.256l.829-.56a12.272 12.272 0 01-1.134-2.086l-.921.39zm-.777-2.496c.176.854.436 1.694.777 2.497l.92-.391a12.234 12.234 0 01-.718-2.308l-.979.202zm-.269-2.674c0 .9.09 1.797.269 2.672l.98-.199a12.431 12.431 0 01-.249-2.473h-1zm.269-2.673a13.415 13.415 0 00-.269 2.673h1c0-.833.084-1.665.249-2.473l-.98-.2zm.777-2.498c-.34.802-.601 1.643-.777 2.497l.98.202c.162-.791.403-1.568.717-2.308l-.92-.39zm1.226-2.257a13.25 13.25 0 00-1.226 2.258l.92.39c.31-.73.691-1.432 1.134-2.087l-.828-.56zm1.623-1.964c-.6.601-1.147 1.26-1.623 1.965l.829.56a12.43 12.43 0 011.502-1.819l-.708-.706zm1.966-1.62a13.509 13.509 0 00-1.965 1.619l.706.708a12.508 12.508 0 011.82-1.498l-.56-.829zm2.26-1.227c-.787.335-1.548.746-2.26 1.227l.56.829a12.35 12.35 0 012.091-1.135l-.39-.92zm2.501-.773a13.17 13.17 0 00-2.5.773l.39.921a12.138 12.138 0 012.31-.714l-.2-.98zM25 11.7c-.901 0-1.802.09-2.678.27l.2.98c.81-.166 1.643-.25 2.478-.25v-1zm2.678.27A13.42 13.42 0 0025 11.7v1c.833 0 1.667.084 2.478.25l.2-.98zm2.499.773c-.804-.34-1.645-.6-2.5-.773l-.199.98c.79.16 1.567.4 2.31.714l.389-.921zm2.26 1.227a13.42 13.42 0 00-2.26-1.227l-.39.92c.73.31 1.433.691 2.09 1.136l.56-.829zm1.966 1.618a13.587 13.587 0 00-1.966-1.618l-.56.829c.65.44 1.264.944 1.82 1.498l.706-.709zm1.623 1.967a13.392 13.392 0 00-1.621-1.965l-.709.706a12.394 12.394 0 011.501 1.818l.83-.559zm1.227 2.257a12.995 12.995 0 00-1.228-2.259l-.826.563c.444.654.826 1.356 1.133 2.085l.921-.389zm.776 2.496a13.168 13.168 0 00-.776-2.497l-.92.391c.314.74.554 1.517.716 2.307l.98-.2zm-5.811-5.518l.416.278.244-.364-.329-.29-.33.376zm0 .001l-.416-.278.416.278zm-9.794-2.418l-.117-.486-.738.177.454.608.4-.299zm.017.024l-.4.3.4-.3zm4.07 6.344l-.44.239.208.381.406-.152-.175-.468zm.84 1.626l-.188-.463-.495.202.234.48.45-.219zm6.09-4.318l.409.287-.41-.287zm-5.363 5.9l.46-.194v-.001l-.46.196zm.236.566l-.463.19.146.354.38-.048-.063-.496zm7.6.352l-.102.49.102-.49zm.013.003l-.102.49.608.125-.006-.62-.5.005zm-2.486-6.822l.386-.318-.418-.507-.377.538.41.287zm-2.333 15.987l-.493.083.13.765.642-.434-.28-.414zm-2.128-7.797l-.079-.494-.598.096.207.57.47-.172zm6.812.474l.493.08.068-.424-.408-.132-.153.476zm-6.525 8.32l.195.46.364-.154-.066-.39-.493.084zm-2.335-8.288l.466-.18-.17-.44-.448.143.152.477zm-8.651 6.843l-.454-.21-.167.36.314.244.307-.395zm8.579-6.82l.164.473.007-.003-.171-.47zm.045-.015l.15.477h.003l-.153-.477zm-.718-1.817l.138.48.551-.158-.232-.524-.457.202zM25.3 23.08l.445-.228-.19-.37-.398.119.143.479zm.456 1.986l.153.476.005-.002-.158-.474zm-8.887 7.21l-.372.334.788-.611-.416.277zm-2.796-7.534l-.5-.017.5.017zm.004-.108l.02-.5-.506-.02-.014.506.5.014zm6.258-9.525l.4-.3-.244-.326-.369.174.213.452zm4.06 6.29l.128.483.624-.166-.317-.563-.436.246zm-10.092 1.333l-.49-.103-.125.597.61.006.005-.5zm.01 0l.005-.5-.005.5zm17.49-6.22l-.001.001.831.556.001-.001-.831-.556zm-6.804-1.945c2.642 0 5.053.98 6.89 2.598l.66-.75a11.387 11.387 0 00-7.55-2.848v1zm-2.458.292c.788-.19 1.61-.292 2.458-.292v-1c-.928 0-1.83.113-2.692.32l.234.972zm.301-.761l-.018-.024-.8.598.017.024.801-.598zm4.107 6.403a56.55 56.55 0 00-4.107-6.403l-.801.598c.255.34 2.23 2.982 4.03 6.284l.878-.479zm4.853-3.988c-.011.017-1.5 2.274-5.467 3.76l.35.936c4.216-1.578 5.856-4.003 5.948-4.14l-.831-.556zM27.54 22.83c4.403-1.795 6.23-4.38 6.31-4.494l-.819-.574c-.006.008-1.694 2.44-5.868 4.142l.377.926zm.998.924c-.231-.542-.48-1.08-.737-1.606l-.899.438a34 34 0 01.716 1.56l.92-.392zm.238.571c-.077-.19-.157-.378-.238-.57l-.92.39c.08.19.158.375.233.56l.925-.38zm7.24.053c-.296-.062-3.994-.832-7.764-.359l.124.992c3.597-.451 7.158.288 7.436.346l.204-.98zm.012.002l-.013-.002-.203.979.013.002.203-.979zm-2.973-6.014a10.35 10.35 0 012.372 6.509l1-.01a11.35 11.35 0 00-2.6-7.135l-.772.636zm.795-.03v-.001l-.818-.574-.001.001.819.574zM31.6 33.95c-.113-.675-.702-3.912-2.15-7.884l-.94.342c1.42 3.896 1.997 7.069 2.105 7.709l.986-.167zm3.698-7.318a10.418 10.418 0 01-4.47 6.987l.56.83a11.418 11.418 0 004.897-7.659l-.987-.158zm-6.239.099c3.411-.546 6.378.391 6.58.456l.306-.952c-.249-.08-3.398-1.076-7.044-.492l.158.988zm.701 8.216c-.165-.973-.807-4.351-2.362-8.384l-.933.36c1.523 3.95 2.15 7.258 2.31 8.192l.985-.168zM25 36.397c1.582 0 3.09-.322 4.462-.905l-.39-.92a10.388 10.388 0 01-4.073.825v1zm-7.026-2.416A11.418 11.418 0 0025 36.397v-1c-2.418 0-4.639-.829-6.411-2.206l-.614.79zm8.721-7.686c-6.626 2.307-8.814 6.966-8.868 7.082l.908.419c-.008.017 2.016-4.373 8.289-6.557l-.329-.944zm.06-.02l-.067.023.343.939a.533.533 0 01.024-.008l-.3-.954zm.025-.008l-.027.009.305.952.026-.008-.304-.953zm-.136-1.534c-.278-.63-.582-1.26-.899-1.88l-.89.454c.31.606.605 1.22.875 1.83l.914-.404zm-.73.807c.131-.044.268-.084.41-.125l-.275-.96c-.145.04-.298.085-.451.136l.316.95zM17.285 32a.937.937 0 01.063.421.896.896 0 01-.03.075l-.006.011a17.841 17.841 0 012.149-2.78c1.449-1.524 3.603-3.266 6.448-4.184l-.307-.952c-3.054.986-5.345 2.847-6.866 4.449a18.828 18.828 0 00-1.718 2.087 13.866 13.866 0 00-.546.836l-.031.054-.011.021a.628.628 0 00-.04.094.936.936 0 00.063.422l.832-.554zm-3.717-7.017a11.36 11.36 0 002.93 7.629l.742-.67a10.36 10.36 0 01-2.672-6.959h-1zm.006-.257a6.71 6.71 0 00-.006.257h1c0-.071.002-.142.005-.223l-1-.034zm.003-.105l-.003.105 1 .034.003-.112-1-.026zm11.58-2.02c-5.553 1.66-10.892 1.54-11.06 1.534l-.04 1c.22.008 5.682.13 11.386-1.575l-.286-.958zm-5.222-7.191a65.258 65.258 0 014.024 6.236l.87-.491a66.221 66.221 0 00-4.094-6.345l-.8.6zm-5.143 7.425a10.432 10.432 0 015.757-7.273l-.427-.904a11.433 11.433 0 00-6.309 7.972l.979.205zm-.474-.602h-.01l-.01 1h.01l.01-1zm9.948-1.316c-5.129 1.36-9.591 1.319-9.948 1.316l-.01 1c.39.003 4.957.045 10.215-1.35l-.257-.966z" fill="#353535"/></svg>