<svg width="50" height="50" fill="none" xmlns="http://www.w3.org/2000/svg"><path fill-rule="evenodd" clip-rule="evenodd" d="M37.28 17.563l-3.935 18.542v.001c-.152.726-.477 1.325-1.061 1.588-.581.262-1.235.108-1.846-.228l-.028-.016-.027-.02-5.656-4.179-2.578 2.508-.035.033c-.149.145-.332.325-.558.46-.265.157-.57.248-.956.248h-.535l.036-.533.39-5.846-.271-.2.453-.41 9.488-8.562-12.247 7.726-.195.123-.22-.068-5.93-1.851h-.002c-.362-.112-.681-.27-.913-.489-.24-.227-.402-.538-.365-.902.034-.345.237-.633.491-.858.258-.228.61-.428 1.036-.599l.006-.002 23.106-8.91c.665-.296 1.41-.245 1.923.252.508.491.652 1.286.428 2.192zM21.493 30.117l-.348 5.205c.086-.067.175-.154.303-.278l.002-.002 2.883-2.803.304-.296.342.252 5.97 4.41c.476.257.764.249.923.177.159-.071.37-.29.493-.881v-.002l3.937-18.552.002-.009.002-.009c.176-.706.011-1.082-.151-1.24-.156-.15-.442-.229-.829-.053l-.013.006-.014.005-23.115 8.913c-.36.145-.599.292-.742.42-.148.13-.159.204-.16.208l.003.006a.23.23 0 00.054.069c.081.076.243.174.521.26h.003l5.712 1.783 13.54-8.542.007-.004c.206-.126.418-.209.618-.25.19-.04.408-.048.607.02a.715.715 0 01.318.213.637.637 0 01.15.437c-.01.284-.196.498-.345.631l-.002.002-10.975 9.904zM25 1.5C12.021 1.5 1.5 12.021 1.5 25S12.021 48.5 25 48.5 48.5 37.979 48.5 25 37.979 1.5 25 1.5zM.5 25C.5 11.469 11.469.5 25 .5S49.5 11.469 49.5 25 38.531 49.5 25 49.5.5 38.531.5 25z" fill="#353535"/></svg>